<svg viewBox="0 0 30 30" fill="currentColor" height="30px" width="30px">
	<g>
		<path d="M1 1H24V26H2C1.44771 26 1 25.5523 1 25V1Z" fill="white" stroke="currentColor" stroke-width="2"></path>
		<path d="M6 4H29V29H7C6.44771 29 6 28.5523 6 28V4Z" fill="white" stroke="currentColor" stroke-width="2"></path>
		<path d="M8.5 6.5H26.5V13.5H8.5V6.5Z" fill="white" stroke="currentColor"></path>
		<mask id="path-4-inside-1_1205_453" fill="white">
			<path d="M8 16H27V17H8V16Z"></path>
		</mask>
		<path d="M8 16H27V17H8V16Z" fill="white"></path>
		<path d="M8 16V14H6V16H8ZM27 16H29V14H27V16ZM27 17V19H29V17H27ZM8 17H6V19H8V17ZM8 18H27V14H8V18ZM25 16V17H29V16H25ZM27 15H8V19H27V15ZM10 17V16H6V17H10Z" fill="currentColor"
			  mask="url(#path-4-inside-1_1205_453)"></path>
		<mask id="path-6-inside-2_1205_453" fill="white">
			<path d="M8 19H27V20H8V19Z"></path>
		</mask>
		<path d="M8 19H27V20H8V19Z" fill="white"></path>
		<path d="M8 19V17H6V19H8ZM27 19H29V17H27V19ZM27 20V22H29V20H27ZM8 20H6V22H8V20ZM8 21H27V17H8V21ZM25 19V20H29V19H25ZM27 18H8V22H27V18ZM10 20V19H6V20H10Z" fill="currentColor"
			  mask="url(#path-6-inside-2_1205_453)"></path>
		<mask id="path-8-inside-3_1205_453" fill="white">
			<path d="M8 22H27V23H8V22Z"></path>
		</mask>
		<path d="M8 22H27V23H8V22Z" fill="white"></path>
		<path d="M8 22V20H6V22H8ZM27 22H29V20H27V22ZM27 23V25H29V23H27ZM8 23H6V25H8V23ZM8 24H27V20H8V24ZM25 22V23H29V22H25ZM27 21H8V25H27V21ZM10 23V22H6V23H10Z" fill="currentColor" mask="url(#path-8-inside-3_1205_453)"></path>
		<mask id="path-10-inside-4_1205_453" fill="white">
			<path d="M8 25H27V26H8V25Z"></path>
		</mask>
		<path d="M8 25H27V26H8V25Z" fill="white"></path>
		<path d="M8 25V23H6V25H8ZM27 25H29V23H27V25ZM27 26V28H29V26H27ZM8 26H6V28H8V26ZM8 27H27V23H8V27ZM25 25V26H29V25H25ZM27 24H8V28H27V24ZM10 26V25H6V26H10Z" fill="currentColor" mask="url(#path-10-inside-4_1205_453)"></path>
	</g>
</svg>
