<svg width="64" height="64" viewBox="0 0 64 64" fill="none" xmlns="http://www.w3.org/2000/svg">
<g clip-path="url(#clip0_3_22084)">
<g clip-path="url(#clip1_3_22084)">
<path d="M32.275 -0.615967C50.5643 -0.615967 65.39 14.2113 65.39 32.5005C65.39 50.7896 50.5643 65.6169 32.275 65.6169C13.9843 65.6169 -0.841431 50.7896 -0.841431 32.5005C-0.841431 14.2113 13.9842 -0.615967 32.275 -0.615967Z" fill="white" style="fill:white;fill-opacity:1;"/>
<path d="M3.4297 48.7762C1.39205 45.1711 0.00847071 41.1486 -0.555176 36.8653C2.52536 37.9852 4.72579 40.9376 4.72579 44.4041C4.72594 46.0168 4.24963 47.5193 3.4297 48.7762ZM24.9533 11.0149C22.8012 11.0149 21.0558 9.2696 21.0558 7.11731C21.0558 4.96364 22.8011 3.21838 24.9533 3.21838C27.107 3.21838 28.8523 4.96364 28.8523 7.11731C28.8523 9.26944 27.107 11.0149 24.9533 11.0149ZM8.88718 18.2401C11.2851 18.2401 13.2292 20.1843 13.2292 22.5822C13.2292 24.9786 11.2851 26.9227 8.88718 26.9227C6.48925 26.9227 4.54665 24.9786 4.54665 22.5822C4.5465 20.1843 6.48925 18.2401 8.88718 18.2401ZM23.5698 28.686C21.1493 28.686 19.187 26.7237 19.187 24.3032C19.187 21.8812 21.1493 19.9189 23.5698 19.9189C25.9918 19.9189 27.9541 21.8812 27.9541 24.3032C27.954 26.7238 25.9918 28.686 23.5698 28.686ZM43.4609 14.3109C41.3073 14.3109 39.562 12.5657 39.562 10.412C39.562 8.25988 41.3073 6.51447 43.4609 6.51447C45.6131 6.51447 47.3585 8.25973 47.3585 10.412C47.3585 12.5657 45.6132 14.3109 43.4609 14.3109ZM37.25 30.79C35.0964 30.79 33.3511 29.0448 33.3511 26.8911C33.3511 24.7389 35.0964 22.9935 37.25 22.9935C39.4022 22.9935 41.1476 24.7388 41.1476 26.8911C41.1476 29.0448 39.4023 30.79 37.25 30.79ZM56.5611 9.9914C59.8422 13.5287 62.3575 17.7834 63.8496 22.4947C62.9511 22.8743 61.9854 23.069 61.01 23.0674C56.9815 23.0674 53.7155 19.8014 53.7155 15.7729C53.7157 13.4186 54.8309 11.3253 56.5611 9.9914ZM52.3336 37.0312C50.1815 37.0312 48.4361 35.2859 48.4361 33.1336C48.4361 30.9813 50.1813 29.2361 52.3336 29.2361C54.4873 29.2361 56.2326 30.9813 56.2326 33.1336C56.2326 35.2859 54.4873 37.0312 52.3336 37.0312ZM53.601 52.3393C51.4489 52.3393 49.7035 50.594 49.7035 48.4403C49.7035 46.2882 51.4487 44.5428 53.601 44.5428C55.7547 44.5428 57.4999 46.288 57.4999 48.4403C57.5001 50.5939 55.7549 52.3393 53.601 52.3393ZM38.5884 58.2818C36.4363 58.2818 34.6909 56.5366 34.6909 54.3843C34.6909 52.2306 36.4361 50.4854 38.5884 50.4854C40.7421 50.4854 42.4873 52.2306 42.4873 54.3843C42.4873 56.5366 40.7421 58.2818 38.5884 58.2818ZM34.7044 42.9798C33.6885 42.9798 32.8657 42.1569 32.8657 41.141C32.8657 40.1267 33.6885 39.3038 34.7044 39.3038C35.7188 39.3038 36.5417 40.1267 36.5417 41.141C36.5417 42.1569 35.7188 42.9798 34.7044 42.9798ZM22.4182 54.2714C20.2661 54.2714 18.5207 52.5261 18.5207 50.3724C18.5207 48.2203 20.266 46.4749 22.4182 46.4749C24.5719 46.4749 26.3172 48.2201 26.3172 50.3724C26.3172 52.5261 24.5719 54.2714 22.4182 54.2714ZM14.3385 37.0327C15.5985 37.0327 16.6202 38.0531 16.6202 39.3144C16.6202 40.5744 15.5983 41.5948 14.3385 41.5948C13.0785 41.5948 12.0567 40.5744 12.0567 39.3144C12.0566 38.0529 13.0785 37.0327 14.3385 37.0327Z" fill="#E3DCEE" style="fill:#E3DCEE;fill:color(display-p3 0.8907 0.8613 0.9347);fill-opacity:1;"/>
<path d="M31.8651 42.7085C44.9757 42.7085 57.0118 44.6241 66.4586 47.8193C59.6914 59.8629 46.7978 67.9999 32.0007 67.9999C17.1718 67.9999 4.25411 59.8282 -2.50085 47.7424C6.91125 44.5925 18.8583 42.7085 31.8651 42.7085Z" fill="#B3A1CE" style="fill:#B3A1CE;fill:color(display-p3 0.7021 0.6304 0.8096);fill-opacity:1;"/>
<path d="M31.9043 -4.92615H32.6443V-3.5259H34.4769V-2.78744H32.6443V4.24341H31.9043V-2.78744H30.0715V-3.5259H31.9043V-4.92615Z" fill="#270061" style="fill:#270061;fill:color(display-p3 0.1540 0.0000 0.3802);fill-opacity:1;"/>
<path d="M27.0198 24.8036H37.5291V12.3922H40.0657L32.2753 2.3833L24.4833 12.3922H27.0198V24.8036Z" fill="#270061" style="fill:#270061;fill:color(display-p3 0.1540 0.0000 0.3802);fill-opacity:1;"/>
<path d="M29.2444 14.0955H35.3061V20.4963H29.2444V14.0955Z" fill="#FFCD47" style="fill:#FFCD47;fill:color(display-p3 1.0000 0.8046 0.2778);fill-opacity:1;"/>
<path d="M52.4995 56.0845C52.0835 52.8788 50.4347 51.0236 49.4883 46.0981C49.3043 45.1441 48.3745 40.5956 48.3745 40.5956C48.3745 40.5956 49.4717 40.0787 48.3866 37.9505C47.2999 35.8239 38.4921 33.0387 38.4921 33.0387L38.462 32.9875C37.5321 32.9122 34.5767 32.796 34.5767 32.796L30.6083 32.906C30.6083 32.906 30.0492 32.8684 29.8984 32.7221C29.7492 32.576 28.762 30.5397 28.762 30.5397C28.762 30.5397 28.2405 29.4214 27.9316 29.0914C27.6227 28.7598 25.2187 28.2097 24.9429 28.2097C24.6685 28.2097 24.4064 28.1917 24.4064 28.1917L22.2768 29.7516L22.0311 29.5859L24.319 27.4578L26.0839 28.1557L28.4095 28.8897L30.1683 32.4285L31.6378 32.3004L36.4803 32.0577L37.9407 32.0773C37.2368 30.8264 36.0794 28.7089 35.8623 27.904C35.5474 26.73 35.9935 25.1159 36.2226 24.6019C36.4502 24.0895 34.0101 22.1091 34.0101 22.1091C34.0101 22.1091 30.7984 19.5771 29.9288 19.2108C29.0607 18.8431 26.0388 19.6132 26.0388 19.6132L22.9507 17.2667L26.1609 19.2471C26.1609 19.2471 29.0697 18.7437 29.656 18.7437C30.2437 18.7437 30.5557 19.0542 30.6145 19.1009C30.6733 19.1462 33.1917 20.3293 34.8993 21.9073C36.6085 23.4837 36.9158 23.5396 37.2113 24.5658C37.5053 25.5938 37.0154 25.6118 36.8768 25.7761C36.7381 25.9418 36.3628 27.2079 36.8919 28.2901C37.4224 29.3722 39.7571 31.8469 39.8203 32.0866C39.8851 32.3246 40.9914 32.6186 43.1436 33.2591C45.2777 33.8951 48.1835 35.1264 48.8013 35.987C48.9098 35.4279 49.2202 34.9833 49.3303 34.5146C49.4734 33.8891 48.631 32.486 48.5586 32.3473C48.4878 32.2086 47.4645 31.5937 47.4645 31.5937L46.0146 31.1461L41.5957 28.917C41.5957 28.917 40.916 28.2433 40.806 27.7445C40.6944 27.2472 39.8685 24.5222 39.8685 24.5222C39.8685 24.5222 39.9032 24.5222 39.5097 24.2207C39.1164 23.9192 38.4909 23.5847 38.3914 23.0858C38.2919 22.587 37.9725 20.4077 37.9725 20.4077L37.5836 19.0286C37.5836 19.0286 37.0004 18.8899 36.8677 18.7393C36.7336 18.5885 36.2212 18.1937 36.0825 18.1469C35.9424 18.1002 32.6312 17.1281 32.2408 16.4558C31.852 15.7837 31.5128 14.9593 31.3983 14.8326C31.2838 14.7046 29.0864 12.1906 29.0864 12.1906C29.0864 12.1906 29.0185 11.9343 28.7005 10.4966C28.4624 9.41295 27.7525 6.48455 27.4179 5.10853L26.7231 4.8237L26.2137 4.42283L25.5264 3.48085C25.5264 3.48085 24.8361 3.12057 24.7276 3.11008C24.4874 3.08305 24.2472 3.05492 24.0072 3.02568L22.3629 3.52298L22.1533 3.37377L23.5761 2.92014L24.4638 2.71816L25.6333 3.17334C25.6333 3.17334 26.423 4.17858 26.4608 4.24184C26.4895 4.2886 27.0185 4.52822 27.3079 4.65783L27.24 4.37454L26.5528 1.22164C26.5528 1.22164 26.6463 1.09357 26.7759 1.36035C26.9055 1.62713 27.0879 2.36868 27.0999 2.41528C27.112 2.46188 29.1919 9.99928 29.1919 9.99928C29.1919 9.99928 29.4375 11.3437 29.6184 11.7144C29.7992 12.0852 30.3539 12.7228 30.7699 13.2337C31.1843 13.7431 31.9591 14.4273 32.473 15.0889C32.987 15.749 33.0819 15.969 33.2673 16.2705C33.4526 16.572 38.0917 18.3458 38.3614 18.6126C38.6298 18.8794 38.7774 19.2983 38.8648 19.541C38.9536 19.7837 38.9431 20.3051 38.9251 20.5373C38.907 20.7694 39.0291 22.2825 39.3712 22.9096C39.7132 23.5351 40.3824 24.1259 40.702 24.6248C41.0231 25.1236 40.9325 25.3091 40.9928 25.7039C41.0532 26.0972 41.1376 27.1236 41.9288 27.8652C42.72 28.6083 44.6477 29.3512 45.246 29.7672C45.8459 30.1847 47.3756 30.3368 47.3756 30.3368L46.3252 26.5464C46.3252 26.5464 45.7328 26.1515 45.4917 25.9435C45.249 25.734 43.6665 24.7604 43.6665 24.7604C43.6665 24.7604 41.4434 23.1372 41.3997 22.9744C41.356 22.8116 40.5557 20.7032 40.5557 20.7032L39.6785 17.4447L39.2746 15.5563L38.533 14.8254C38.533 14.8254 36.4758 13.2957 36.2497 13.0635C36.0266 12.8314 35.5037 12.4831 35.1434 12.6114C34.7831 12.7394 33.8081 12.8661 33.5262 12.6341C33.2443 12.4035 32.3943 11.6152 32.3943 11.6152C32.3943 11.6152 32.2587 10.2121 32.0748 9.95731C31.8895 9.70102 30.6068 8.9837 30.3763 8.72741C30.1458 8.47266 29.8082 7.56848 29.8082 7.56848L30.1201 7.47498L30.506 8.13661C30.506 8.13661 32.2031 9.44628 32.4232 9.70102C32.6432 9.95731 32.7457 10.3401 32.8588 10.7575C32.9703 11.175 33.1075 11.5578 33.4783 11.8592C33.8506 12.1591 35.0999 12.1485 35.5099 12.1244C35.9214 12.1017 36.3584 12.0897 36.5799 12.2645C36.8 12.4378 37.7359 13.7596 38.1007 13.9917C38.4639 14.2238 39.4542 14.8041 39.4542 14.8041L39.9953 15.5214C39.9953 15.5214 40.0692 14.8493 40.1505 14.3745C40.2304 13.8997 40.6102 13.3662 40.6734 13.2156C40.7367 13.0648 40.7654 12.566 40.7654 12.566C40.7654 12.566 40.479 10.26 40.4835 9.84112C40.4866 9.42514 39.9214 8.4847 39.739 8.19539C39.5566 7.90609 39.2417 7.03493 39.2417 7.03493L38.8876 5.37855L37.2945 2.8632C37.2945 2.8632 37.1649 2.4699 37.2433 1.85487C37.3216 1.24 37.1544 0.579763 37.1544 0.579763L36.1311 -0.20854C36.1311 -0.20854 35.8915 -0.27782 35.2058 -0.196506C34.5215 -0.115191 34.4854 -0.589808 34.4854 -0.589808C34.4854 -0.589808 35.0822 -0.66063 35.4529 -0.66063C35.8237 -0.66063 37.3851 -0.161788 37.5525 0.162235C37.7213 0.487802 38.0242 1.31067 38.0424 1.37995C38.062 1.44923 38.0107 2.16825 37.958 2.46357C37.9036 2.7589 37.8766 2.91566 38.1539 3.34523C38.4312 3.77324 39.3972 5.3392 39.3972 5.3392C39.3972 5.3392 39.6912 6.12889 39.7257 6.60367C39.7618 7.07844 40.4869 8.40015 40.5998 8.51772C40.7129 8.63221 41.2706 9.67525 41.3489 10.3941C41.4258 11.113 41.4333 13.1297 41.4333 13.1297C41.4333 13.1297 40.6662 14.8464 40.7476 15.4958C40.8305 16.1454 40.8757 16.4001 40.9586 17.1415C41.043 17.8846 40.9555 17.9071 41.1334 18.9968C41.3113 20.0864 41.5327 21.6871 41.9609 22.2432C42.3889 22.7993 43.3233 23.1701 43.3233 23.1701C43.3233 23.1701 45.4951 24.9908 45.7257 25.1188C45.9578 25.2469 46.0724 24.7255 46.0724 24.7255C46.0724 24.7255 45.5117 22.9863 45.4832 22.7075C45.4546 22.4287 45.6595 21.2938 45.6595 21.2938L44.9422 19.5771C44.9422 19.5771 43.9535 17.7579 43.8978 17.5486C43.8405 17.3406 42.9664 14.6037 42.8834 13.6074C42.8006 12.6097 42.4509 11.9149 43.1547 11.7746C43.86 11.6359 46.2022 8.27347 46.2022 8.27347C46.2022 8.27347 47.0161 4.74825 47.0869 3.89067C47.1562 3.03308 46.7433 1.06179 46.7433 1.06179C46.7433 1.06179 45.9686 -0.60817 45.7125 -1.55756C45.4577 -2.50849 45.714 -3.36761 45.714 -3.36761L45.9883 -3.3616C45.9883 -3.3616 45.8618 -1.99916 46.017 -1.55154C46.1707 -1.10547 47.1882 0.969979 47.2423 1.23521C47.2966 1.50199 47.3479 2.18615 47.3628 2.26762C47.3793 2.34893 47.598 4.25712 47.604 4.3264C47.6115 4.39568 47.4548 5.45076 47.4321 5.58484C47.4094 5.71754 46.6348 8.41974 46.6348 8.63375C46.6348 8.8493 45.9552 9.94496 45.9552 9.94496L43.824 12.6231C43.824 12.6231 43.7788 12.9712 43.7305 13.1326C43.6808 13.2954 43.5181 13.4686 43.5181 13.4686L43.818 15.0346C43.818 15.0346 44.6153 13.3662 44.8941 13.2381C45.1729 13.1101 45.9853 12.2525 46.1812 12.0324C46.3772 11.8124 48.9649 8.46202 48.9649 8.46202C48.9649 8.46202 48.5008 5.44767 48.7373 5.0303C48.9724 4.61277 49.7154 3.15235 49.5406 2.50276C49.3657 1.85317 50.7462 0.346002 50.7462 0.346002L51.741 0.276723L51.637 0.537485L50.9587 0.903786C50.9587 0.903786 50.092 2.5722 50.0604 2.62497C50.0272 2.67619 50.196 4.18337 50.196 4.18337C50.196 4.18337 49.2692 5.43734 49.3144 5.73868C49.3611 6.04017 49.6007 8.13799 49.6444 8.30078C49.6881 8.46356 49.4153 9.2156 49.3008 9.39042C49.1848 9.56524 48.6091 10.5268 48.6091 10.5268C48.6091 10.5268 45.6777 13.7627 45.5887 13.9948C45.4998 14.2253 45.0943 14.7831 44.9075 15.2125C44.7222 15.6405 44.7251 15.8893 44.7251 15.8893L45.0039 17.4808L45.5856 18.1213C45.5856 18.1213 46.9209 17.3105 47.2435 17.217C47.566 17.125 48.0845 17.241 48.3528 17.2863C48.6196 17.333 49.1983 16.9863 49.3113 16.7994C49.4228 16.6141 50.5532 15.3858 50.5532 15.3858C50.5532 15.3858 49.9911 13.2517 50.1312 12.997C50.2713 12.7422 50.1945 12.5449 50.4508 12.5449C50.7055 12.5449 51.2992 12.5569 51.2932 12.1861C51.2857 11.8154 51.8404 8.98647 51.8404 8.98647L51.8555 8.02937L52.19 8.08816L52.2111 10.1514L51.7936 12.9923L51.4515 13.1023L50.8999 13.1611L50.6135 13.3224C50.6135 13.3224 51.2616 15.4037 51.2661 15.5092C51.2705 15.6132 51.0294 15.8332 50.9873 16.0653C50.9451 16.2974 50.6888 16.5989 50.5216 16.9229C50.3543 17.2485 49.2255 17.9658 49.2329 18.0366C49.2405 18.1059 48.3196 18.1286 48.3196 18.1286C48.3196 18.1286 46.9993 18.2673 46.9783 18.3606C46.9573 18.454 46.2247 19.2015 46.2247 19.2015C46.2247 19.2015 46.7868 20.6921 46.8336 20.9468C46.8788 21.2031 46.7356 21.6189 46.8516 22.2233C46.9661 22.8261 47.0536 23.1502 47.0536 23.1502C47.0536 23.1502 48.9993 23.3129 49.2963 23.3822C49.5932 23.4515 50.2051 23.3129 50.2051 23.3129C50.2051 23.3129 50.71 22.0846 50.8879 21.967C51.0642 21.8525 52.0408 21.0869 52.0408 21.0869L52.4523 19.2542L52.3167 18.2338L54.716 17.5857L54.4613 18.0695L52.7054 18.579L53.0173 19.5435C53.0173 19.5435 52.6571 21.0974 52.6089 21.3882C52.5592 21.6775 51.9217 22.0258 51.8749 22.1071C51.8266 22.187 50.8982 23.6488 50.8396 23.8568C50.7793 24.0664 50.2036 24.2517 50.2036 24.2517L49.1516 24.1356L47.0627 24.0421C47.0627 24.0421 47.4938 25.3865 47.5043 25.9442C47.5148 26.5002 47.6867 27.0309 47.7936 27.5177C47.9021 28.0045 47.8675 28.8229 48.1116 29.2373L49.1124 30.9283C49.1124 30.9283 50.0829 31.9999 50.3332 32.4143C50.5819 32.8272 50.4855 32.7368 50.5532 32.9628L50.7763 32.7639C50.7763 32.7639 53.8328 29.5371 54.0423 28.9494C54.2503 28.3631 55.4575 27.6653 55.7107 26.5651C55.7891 26.229 55.988 26.0119 56.2276 25.8733L55.9488 22.6073C55.9488 22.6073 55.9141 22.0617 55.8479 21.6698C55.7831 21.2765 55.9218 20.7234 55.9624 20.547C56.0031 20.3707 56.1011 18.8018 56.1011 18.8018C56.1011 18.8018 55.7816 18.3858 55.7107 18.009C55.6415 17.6322 55.2435 15.2282 55.2435 15.2282C55.2435 15.2282 55.3807 14.9329 55.6248 14.651C55.8704 14.3707 56.208 14.315 56.2276 14.1793C56.2472 14.0422 56.7205 11.0701 56.7205 11.0701C56.7205 11.0701 56.8485 7.65042 56.4236 6.96009C55.9971 6.27131 55.2375 5.53439 55.1787 5.37454C55.1199 5.21484 54.909 4.49289 54.909 4.49289L55.4094 2.29848C55.4094 2.29848 55.423 1.3369 55.0794 1.01596C54.7373 0.694868 54.3514 -0.0255444 54.3514 -0.0255444L54.603 0.0784521C54.603 0.0784521 55.4139 0.887739 55.6038 1.35202C55.7922 1.81614 55.7757 2.61802 55.7078 2.8757C55.6399 3.13199 55.4878 3.42731 55.4878 3.42731L55.5014 4.81382L55.9038 5.84021C55.9038 5.84021 56.5895 6.23953 56.8834 7.15296C57.1773 8.06625 57.233 9.64578 57.233 9.64578L57.1065 12.627L56.7598 14.6134C56.7598 14.6134 55.8857 15.1741 55.8691 15.4151C55.8539 15.6547 56.0167 16.3767 56.0198 16.568C56.0229 16.7609 56.6166 18.5484 56.6166 18.5484C56.6166 18.5484 57.3145 16.3208 57.3522 15.504C57.3883 14.6856 57.3386 14.2048 57.7063 13.9652C58.0755 13.724 58.481 13.7407 59.1199 13.4362C59.759 13.1318 59.896 12.5711 59.896 12.5711C59.896 12.5711 59.6293 11.6412 59.8025 11.4483C59.9744 11.2568 61.8718 11.1604 61.9337 10.7911C61.994 10.4234 62.3089 9.51 62.416 9.43023C62.5231 9.3503 64.9632 8.94944 64.9632 8.94944L64.9466 9.36543L62.7297 9.70149C62.7297 9.70149 62.4478 10.8559 62.2037 11.0806C61.9596 11.3051 61.8224 11.2721 61.4577 11.5282C61.0945 11.7859 60.5277 11.6413 60.4676 11.8974C60.4088 12.1537 60.4375 12.3782 60.3832 12.8922C60.3288 13.4031 60.2008 13.4679 60.038 13.6925C59.8737 13.917 59.1503 13.789 58.8112 14.1417C58.4751 14.4944 57.9325 14.6225 57.9928 14.847C58.0531 15.0715 58.1963 15.4875 58.1963 15.4875C58.1963 15.4875 59.6794 15.4558 60.0366 15.471C60.3923 15.4875 61.6282 15.5509 61.6282 15.5509C61.6282 15.5509 62.6455 15.3113 63.1022 15.3429C63.5603 15.3761 63.8649 15.792 63.8649 15.792L65.7744 16.3376L66.3049 15.8072L66.528 15.9203L65.9267 16.722C65.9267 16.722 64.7286 16.4975 64.4376 16.4341C64.1483 16.3693 63.5032 15.7604 63.0179 15.7437C62.5327 15.7272 60.905 16.0482 60.712 16.0482C60.5205 16.0482 59.158 15.8718 58.92 15.9366C58.6803 15.9999 57.8936 16.3526 57.8936 16.3526C57.8936 16.3526 57.6584 17.2026 57.5665 17.6351C57.4745 18.0676 56.9048 18.868 56.9078 19.0608C56.9123 19.2537 56.8505 19.8625 56.7751 20.054C56.6982 20.2469 56.6439 20.7593 56.6439 20.7593L58.5956 19.7345C58.5956 19.7345 59.1969 20.1821 59.2739 19.8144C59.3508 19.4452 59.3222 18.8047 59.3944 18.5967C59.4668 18.3887 59.8556 18.4038 60.0801 18.4038C60.3046 18.4038 62.077 16.8334 62.077 16.8334C62.077 16.8334 62.7658 16.7686 62.8818 17.0263C62.9994 17.2826 63.0326 17.9395 63.1441 18.1159C63.2557 18.2923 64.1133 19.397 64.2458 19.4135C64.3784 19.4301 65.3974 19.2855 65.5842 19.3819C65.7695 19.4784 66.5035 20.3586 66.5503 20.5348C66.5985 20.7112 66.1839 20.5996 66.1839 20.5996L65.5555 19.8144C65.5555 19.8144 64.6075 20.2785 64.2111 19.8792C63.8147 19.4784 63.447 19.3653 63.2451 19.0292C63.0431 18.6931 62.5427 18.1475 62.5382 18.0676C62.5322 17.9877 62.3981 17.4904 62.3981 17.4904L61.6928 17.9079C61.6928 17.9079 60.3575 19.0759 60.2821 19.0926C60.2053 19.1091 59.9053 19.1258 59.9053 19.3021C59.9038 19.4785 59.8436 20.0874 59.8436 20.0874L59.5452 20.4085C59.5452 20.4085 58.8911 20.535 58.8083 20.5833C58.7254 20.6316 56.9875 21.5614 56.9875 21.5614C56.9875 21.5614 57.2512 24.1597 57.408 25.6397C57.4773 25.6442 57.5196 25.6488 57.5196 25.6488L61.096 25.4228L63.6884 23.8824C63.6884 23.8824 64.6273 23.5509 65.2332 24.0286C65.8376 24.5049 66.0727 24.8349 66.1329 25.055C66.1917 25.275 70.2654 26.9901 70.2654 26.9901L71.4711 27.0113L71.4847 27.3881L70.4236 27.4032L66.1071 25.6428C66.1071 25.6428 65.6052 25.2751 65.0928 24.8712C64.5803 24.4688 64.2066 24.5788 64.2066 24.5788L61.6445 25.9624L57.5978 26.9857L57.6205 27.3549C56.3981 27.6549 55.7712 29.2268 55.2995 30.1778C54.6816 31.4257 52.537 35.3126 52.323 35.6065C52.1075 35.9005 52.5265 37.1845 52.5265 37.1845C52.5265 37.1845 52.9712 42.6494 53.0013 43.3095C53.0329 43.9696 53.8769 44.9236 55.042 46.3916C56.2056 47.858 55.6841 48.372 56.1212 50.1324C56.406 51.2792 56.9531 53.3471 57.3449 54.6989C55.8183 55.2887 54.2026 55.7559 52.4995 56.0845Z" fill="#270061" style="fill:#270061;fill:color(display-p3 0.1540 0.0000 0.3802);fill-opacity:1;"/>
<path d="M49.2078 42.5187V52.4839H15.2277V42.5187H15.199V32.9168H10.8615L20.3882 22.9078L23.2803 25.9461L32.2177 16.513L41.1552 25.9461L44.0473 22.9078L53.5741 32.9168H49.2365V42.5187H49.2078Z" fill="#270061" style="fill:#270061;fill:color(display-p3 0.1540 0.0000 0.3802);fill-opacity:1;"/>
<path d="M22.9759 45.1365C24.4303 45.1365 25.621 46.3272 25.621 47.7816V52.1328H20.3325V47.7816C20.3324 46.3272 21.5215 45.1365 22.9759 45.1365ZM32.2751 43.9429C33.7295 43.9429 34.9187 45.132 34.9187 46.588V52.1328H29.63V46.588C29.63 45.132 30.8207 43.9429 32.2751 43.9429ZM41.5726 45.1365C43.027 45.1365 44.2177 46.3272 44.2177 47.7816V52.1328H38.9292V47.7816C38.9292 46.3272 40.1182 45.1365 41.5726 45.1365Z" fill="#FFCD47" style="fill:#FFCD47;fill:color(display-p3 1.0000 0.8046 0.2778);fill-opacity:1;"/>
<path d="M11.3847 49.0099L11.8443 48.4598L12.3024 49.0099V52.4567H11.3845L11.3847 49.0099ZM52.6714 49.0099L53.1295 48.4598L53.5876 49.0099V52.4567H52.6713L52.6714 49.0099ZM50.6066 49.0099L51.0647 48.4598L51.5244 49.0099V52.4567H50.6065L50.6066 49.0099ZM48.5418 49.0099L49.0015 48.4598L49.4596 49.0099V52.4567H48.5417V49.0099H48.5418ZM46.4786 49.0099L46.9367 48.4598L47.3963 49.0099V52.4567H46.4784L46.4786 49.0099ZM44.4138 49.0099L44.8719 48.4598L45.3315 49.0099V52.4567H44.4136V49.0099H44.4138ZM42.3505 49.0099L42.8086 48.4598L43.2667 49.0099V52.4567H42.3504V49.0099H42.3505ZM40.2857 49.0099L40.7438 48.4598L41.2035 49.0099V52.4567H40.2856V49.0099H40.2857ZM38.2209 49.0099L38.679 48.4598L39.1387 49.0099V52.4567H38.2208L38.2209 49.0099ZM36.1561 49.0099L36.6158 48.4598L37.0739 49.0099V52.4567H36.156V49.0099H36.1561ZM34.0929 49.0099L34.551 48.4598L35.0091 49.0099V52.4567H34.0927L34.0929 49.0099ZM32.0281 49.0099L32.4877 48.4598L32.9458 49.0099V52.4567H32.0279V49.0099H32.0281ZM29.9633 49.0099L30.4229 48.4598L30.881 49.0099V52.4567H29.9631L29.9633 49.0099ZM27.9 49.0099L28.3581 48.4598L28.8162 49.0099V52.4567H27.8998V49.0099H27.9ZM25.8352 49.0099L26.2933 48.4598L26.753 49.0099V52.4567H25.835L25.8352 49.0099ZM23.7704 49.0099L24.23 48.4598L24.6882 49.0099V52.4567H23.7702L23.7704 49.0099ZM21.7071 49.0099L22.1652 48.4598L22.6249 49.0099V52.4567H21.707V49.0099H21.7071ZM19.6423 49.0099L20.1004 48.4598L20.5601 49.0099V52.4567H19.6422L19.6423 49.0099ZM17.5791 49.0099L18.0372 48.4598L18.4953 49.0099V52.4567H17.5789V49.0099H17.5791ZM15.5143 49.0099L15.9724 48.4598L16.432 49.0099V52.4567H15.5141L15.5143 49.0099ZM13.4495 49.0099L13.9076 48.4598L14.3672 49.0099V52.4567H13.4493L13.4495 49.0099Z" fill="#270061" style="fill:#270061;fill:color(display-p3 0.1540 0.0000 0.3802);fill-opacity:1;"/>
<path d="M10.0944 50.2067H54.879V50.9241H10.0944V50.2067Z" fill="#270061" style="fill:#270061;fill:color(display-p3 0.1540 0.0000 0.3802);fill-opacity:1;"/>
<path d="M42.0278 33.0343H46.1801V38.7207H42.0278V33.0343ZM18.3702 33.0343H22.5208V38.7207H18.3702V33.0343ZM32.2752 32.5007C33.7296 32.5007 34.9187 33.6899 34.9187 35.1458V40.7554H29.6301V35.1458C29.6301 33.6897 30.8208 32.5007 32.2752 32.5007ZM32.2178 24.5399C33.6299 24.5399 34.7754 25.6854 34.7754 27.0975H29.6586C29.6588 25.6854 30.8056 24.5399 32.2178 24.5399Z" fill="#FFCD47" style="fill:#FFCD47;fill:color(display-p3 1.0000 0.8046 0.2778);fill-opacity:1;"/>
<path d="M32.2752 9.76855C33.4221 9.76855 34.352 10.6985 34.352 11.8454H30.1984C30.1984 10.6983 31.1282 9.76855 32.2752 9.76855Z" fill="#FFCD47" style="fill:#FFCD47;fill:color(display-p3 1.0000 0.8046 0.2778);fill-opacity:1;"/>
<path d="M44.9712 9.2019L40.9893 10.0323C41.972 9.97354 43.473 10.7935 43.5469 11.4175C44.5973 11.2818 44.5838 11.5636 45.1144 12.0294C46.0865 11.7159 46.8959 12.3098 47.0391 12.4545C47.3842 12.8072 47.5439 13.0393 47.7971 13.0498C48.1256 13.0633 48.296 12.6669 48.6216 12.4273C49.0315 12.1229 49.6132 11.9601 50.2025 11.9948C50.6833 11.5397 51.0344 11.1041 52.0036 11.484C52.0775 10.86 53.5304 9.97385 54.5129 10.0326L50.7073 9.20669C50.4902 9.97987 49.1022 12.1095 48.6577 9.9271C48.6577 9.9271 48.816 9.79595 48.5506 9.35744C48.2853 8.91738 48.0246 9.72667 48.0246 9.72667C47.9237 9.73269 47.8377 9.72821 47.7941 9.7674C47.7504 9.72821 47.6644 9.73269 47.5635 9.72667C47.5635 9.72667 47.3028 8.91738 47.0375 9.35744C46.7723 9.79595 46.9305 9.9271 46.9305 9.9271C46.4919 12.0745 45.2108 10.0549 44.9712 9.2019Z" fill="#270061" style="fill:#270061;fill:color(display-p3 0.1540 0.0000 0.3802);fill-opacity:1;"/>
<path d="M48.4225 9.883L47.9056 10.299C47.9056 10.299 48.1016 10.4573 48.3185 10.3698C48.5356 10.2839 48.4225 9.883 48.4225 9.883Z" fill="#FFCD47" style="fill:#FFCD47;fill:color(display-p3 1.0000 0.8046 0.2778);fill-opacity:1;"/>
<path d="M48.4225 9.883L47.9056 10.299L47.9101 10.3035L48.3954 9.97943C48.4346 10.106 48.427 10.2175 48.3789 10.3306C48.5114 10.1979 48.4225 9.883 48.4225 9.883Z" fill="#FFCD47" style="fill:#FFCD47;fill:color(display-p3 1.0000 0.8046 0.2778);fill-opacity:1;"/>
<path d="M47.1659 9.883L47.6844 10.299C47.6844 10.299 47.4869 10.4573 47.2699 10.3698C47.0528 10.2839 47.1659 9.883 47.1659 9.883Z" fill="#FFCD47" style="fill:#FFCD47;fill:color(display-p3 1.0000 0.8046 0.2778);fill-opacity:1;"/>
<path d="M47.1658 9.883L47.6843 10.299C47.6843 10.299 47.6812 10.3005 47.6767 10.3035L47.193 9.97943C47.1538 10.106 47.1629 10.2175 47.2095 10.3306C47.0768 10.1979 47.1658 9.883 47.1658 9.883Z" fill="#FFCD47" style="fill:#FFCD47;fill:color(display-p3 1.0000 0.8046 0.2778);fill-opacity:1;"/>
<path d="M4.82114 21.3161L0.0374756 24.9287C1.3095 24.2323 3.825 24.3802 4.31628 25.1654C5.63197 24.3229 5.79028 24.7073 6.78951 24.995C7.8898 23.9642 9.34266 24.2459 9.62302 24.3499C10.3042 24.6016 10.663 24.808 11.0081 24.6634C11.4542 24.475 11.4317 23.8406 11.7134 23.3161C12.0691 22.6514 12.7427 22.0697 13.5491 21.7457C13.9032 20.8338 14.0947 20.0336 15.6275 19.9296C15.3335 19.0524 16.7111 16.9575 18.057 16.418L12.467 17.7127C12.6645 18.8792 12.155 22.5898 10.1897 19.9614C10.1897 19.9614 10.3178 19.6871 9.68782 19.2697C9.05628 18.8508 9.21907 20.0925 9.21907 20.0925C9.08946 20.1649 8.97188 20.2117 8.93717 20.2914C8.85431 20.2674 8.7443 20.3291 8.60404 20.3834C8.60404 20.3834 7.748 19.4686 7.67116 20.2222C7.59432 20.9742 7.88671 21.0497 7.88671 21.0497C8.65681 24.1871 5.67718 22.3018 4.82114 21.3161Z" fill="#270061" style="fill:#270061;fill:color(display-p3 0.1540 0.0000 0.3802);fill-opacity:1;"/>
<path d="M9.84737 20.0517L9.4209 20.9318C9.4209 20.9318 9.78118 21.0178 10.0162 20.7661C10.2498 20.5144 9.84737 20.0517 9.84737 20.0517Z" fill="#FFCD47" style="fill:#FFCD47;fill:color(display-p3 1.0000 0.8046 0.2778);fill-opacity:1;"/>
<path d="M9.84737 20.0517L9.4209 20.9318C9.4209 20.9318 9.42398 20.9333 9.43139 20.9349L9.87299 20.1964C10.0026 20.3412 10.0629 20.4948 10.0719 20.6741C10.1638 20.4165 9.84737 20.0517 9.84737 20.0517Z" fill="#FFCD47" style="fill:#FFCD47;fill:color(display-p3 1.0000 0.8046 0.2778);fill-opacity:1;"/>
<path d="M8.17419 20.843L9.12513 21.0721C9.12513 21.0721 8.96234 21.4052 8.61872 21.4262C8.27526 21.4472 8.17419 20.843 8.17419 20.843Z" fill="#FFCD47" style="fill:#FFCD47;fill:color(display-p3 1.0000 0.8046 0.2778);fill-opacity:1;"/>
<path d="M8.17419 20.843L9.12513 21.0721C9.12513 21.0721 9.12358 21.0752 9.11911 21.0826L8.26909 20.953C8.29779 21.1458 8.3791 21.2906 8.5118 21.4111C8.25412 21.3191 8.17419 20.843 8.17419 20.843Z" fill="#FFCD47" style="fill:#FFCD47;fill:color(display-p3 1.0000 0.8046 0.2778);fill-opacity:1;"/>
</g>
</g>
<defs>
<clipPath id="clip0_3_22084">
<rect width="64" height="64" rx="32" fill="white" style="fill:white;fill-opacity:1;"/>
</clipPath>
<clipPath id="clip1_3_22084">
<rect width="79" height="79" fill="white" style="fill:white;fill-opacity:1;" transform="translate(-7.5 -11)"/>
</clipPath>
</defs>
</svg>
